<?xml version="1.0" encoding="UTF-8" standalone="no"?>
<!--
  YaCy Logo from 2011, (C) Michael Peter Christen 2011, MIT Licensed.
  Original Artwork from Natali Christen. Font: WideAwake
-->

<svg
   xmlns:a="http://ns.adobe.com/AdobeSVGViewerExtensions/3.0/"
   xmlns:dc="http://purl.org/dc/elements/1.1/"
   xmlns:cc="http://creativecommons.org/ns#"
   xmlns:rdf="http://www.w3.org/1999/02/22-rdf-syntax-ns#"
   xmlns:svg="http://www.w3.org/2000/svg"
   xmlns="http://www.w3.org/2000/svg"
   xmlns:xlink="http://www.w3.org/1999/xlink"
   xmlns:sodipodi="http://sodipodi.sourceforge.net/DTD/sodipodi-0.dtd"
   xmlns:inkscape="http://www.inkscape.org/namespaces/inkscape"
   width="104"
   height="67"
   viewBox="-0.114 -0.803 104 67"
   xml:space="preserve"
   id="svg2"
   version="1.1"
   inkscape:version="0.48.2 r9819"
   sodipodi:docname="YaCyLogo2011.svg"><metadata
   id="metadata52"><rdf:RDF><cc:Work
       rdf:about=""><dc:format>image/svg+xml</dc:format><dc:type
         rdf:resource="http://purl.org/dc/dcmitype/StillImage" /><dc:title></dc:title></cc:Work></rdf:RDF></metadata><sodipodi:namedview
   pagecolor="#ffffff"
   bordercolor="#666666"
   borderopacity="1"
   objecttolerance="10"
   gridtolerance="10"
   guidetolerance="10"
   inkscape:pageopacity="0"
   inkscape:pageshadow="2"
   inkscape:window-width="1135"
   inkscape:window-height="800"
   id="namedview50"
   showgrid="false"
   inkscape:zoom="7.5667206"
   inkscape:cx="51.669647"
   inkscape:cy="33.5"
   inkscape:window-x="171"
   inkscape:window-y="198"
   inkscape:window-maximized="0"
   inkscape:current-layer="svg2" />
	<defs
   id="defs4">
	
		
		
			<linearGradient
   gradientTransform="matrix(91.8794 0 0 -91.8794 60189.6133 41819.4375)"
   y2="454.7988"
   x2="-654.0293"
   y1="454.7988"
   x1="-655.0293"
   gradientUnits="userSpaceOnUse"
   id="XMLID_1_">
			<stop
   id="stop11"
   style="stop-color:#7AC0CA"
   offset="0" />
			<stop
   id="stop13"
   style="stop-color:#2593AD"
   offset="1" />
			<a:midPointStop
   style="stop-color:#7AC0CA"
   offset="0" />
			<a:midPointStop
   style="stop-color:#7AC0CA"
   offset="0.5" />
			<a:midPointStop
   style="stop-color:#2593AD"
   offset="1" />
		</linearGradient>
		
		
		
	</defs>
	<path
   enable-background="new    "
   d="m 30.98,51.183 13.859,-0.004 c 1.463,0 2.688,-0.897 3.016,-2.309 l 18.442,0.033 c 0.034,0 0.065,-0.009 0.099,-0.01 l -0.655,3.78 c -0.03,0.179 -0.045,0.357 -0.045,0.534 0,0.733 0.256,1.448 0.734,2.017 0.595,0.706 1.472,1.113 2.396,1.113 h 13.729 c 1.52,0 2.819,-1.089 3.083,-2.586 0,0 3.19,-18.107 4.426,-25.121 0.543,-0.218 1.026,-0.574 1.38,-1.07 1.105,0.59 2.458,0.473 3.437,-0.317 0.748,-0.604 1.164,-1.506 1.164,-2.436 0,-0.285 -0.049,-0.574 -0.131,-0.859 1.145,-0.494 1.896,-1.613 1.896,-2.865 v -0.019 c -0.008,-1.259 -0.773,-2.378 -1.932,-2.859 0.075,-0.273 0.121,-0.55 0.121,-0.824 0,-0.942 -0.427,-1.854 -1.193,-2.46 -0.988,-0.778 -2.341,-0.879 -3.439,-0.275 -0.74,-1.012 -2.011,-1.492 -3.236,-1.205 -1.223,0.287 -2.141,1.279 -2.355,2.51 -1.256,-0.053 -2.424,0.647 -2.965,1.786 -0.049,0.103 -0.071,0.211 -0.107,0.317 h -8.232 c -0.039,0 -0.076,0.008 -0.115,0.01 L 75.793,9.907 C 75.824,9.725 75.84,9.545 75.84,9.365 75.84,8.634 75.584,7.921 75.108,7.352 74.512,6.643 73.635,6.235 72.71,6.235 H 55.231 c -1.52,0 -2.819,1.089 -3.082,2.588 l -1.575,9.079 -13.745,-0.065 c 0.287,-1.631 0.457,-2.6 0.457,-2.6 0.032,-0.18 0.048,-0.361 0.048,-0.542 0,-0.731 -0.257,-1.444 -0.732,-2.013 -0.596,-0.709 -1.474,-1.117 -2.398,-1.117 H 16.409 c -1.52,0 -2.82,1.09 -3.083,2.587 L 5.976,55.86 c -0.031,0.18 -0.046,0.357 -0.046,0.535 0,0.733 0.257,1.448 0.736,2.017 0.595,0.706 1.471,1.113 2.395,1.113 h 17.876 c 1.52,0 2.819,-1.092 3.083,-2.588 l 0.96,-5.754 z"
   id="path3848"
   style="fill:#2080c0;fill-opacity:1"
   inkscape:connector-curvature="0" /><path
   inkscape:connector-curvature="0"
   style="fill:#2080c0;fill-opacity:1"
   id="path15"
   d="m 30.98,51.183 13.859,-0.004 c 1.463,0 2.688,-0.897 3.016,-2.309 l 18.442,0.033 c 0.034,0 0.065,-0.009 0.099,-0.01 l -0.655,3.78 c -0.03,0.179 -0.045,0.357 -0.045,0.534 0,0.733 0.256,1.448 0.734,2.017 0.595,0.706 1.472,1.113 2.396,1.113 h 13.729 c 1.52,0 2.819,-1.089 3.083,-2.586 0,0 3.19,-18.107 4.426,-25.121 0.543,-0.218 1.026,-0.574 1.38,-1.07 1.105,0.59 2.458,0.473 3.437,-0.317 0.748,-0.604 1.164,-1.506 1.164,-2.436 0,-0.285 -0.049,-0.574 -0.131,-0.859 1.145,-0.494 1.896,-1.613 1.896,-2.865 v -0.019 c -0.008,-1.259 -0.773,-2.378 -1.932,-2.859 0.075,-0.273 0.121,-0.55 0.121,-0.824 0,-0.942 -0.427,-1.854 -1.193,-2.46 -0.988,-0.778 -2.341,-0.879 -3.439,-0.275 -0.74,-1.012 -2.011,-1.492 -3.236,-1.205 -1.223,0.287 -2.141,1.279 -2.355,2.51 -1.256,-0.053 -2.424,0.647 -2.965,1.786 -0.049,0.103 -0.071,0.211 -0.107,0.317 h -8.232 c -0.039,0 -0.076,0.008 -0.115,0.01 L 75.793,9.907 C 75.824,9.725 75.84,9.545 75.84,9.365 75.84,8.634 75.584,7.921 75.108,7.352 74.512,6.643 73.635,6.235 72.71,6.235 H 55.231 c -1.52,0 -2.819,1.089 -3.082,2.588 l -1.575,9.079 -13.745,-0.065 c 0.287,-1.631 0.457,-2.6 0.457,-2.6 0.032,-0.18 0.048,-0.361 0.048,-0.542 0,-0.731 -0.257,-1.444 -0.732,-2.013 -0.596,-0.709 -1.474,-1.117 -2.398,-1.117 H 16.409 c -1.52,0 -2.82,1.09 -3.083,2.587 L 5.976,55.86 c -0.031,0.18 -0.046,0.357 -0.046,0.535 0,0.733 0.257,1.448 0.736,2.017 0.595,0.706 1.471,1.113 2.395,1.113 h 17.876 c 1.52,0 2.819,-1.092 3.083,-2.588 l 0.96,-5.754 z"
   enable-background="new    " /><g
   id="g17"
   style="fill:#ffffff">
			<defs
   id="defs19">
				<path
   inkscape:connector-curvature="0"
   d="m 94.96,21.122 -2.616,-1.015 0.807,-2.688 -2.424,1.412 -1.6,-2.305 -0.407,2.776 -2.8,-0.188 1.917,2.048 -0.052,0.057 H 82.771 L 79.462,39.585 H 77.224 L 80.529,21.219 H 74.75 l -4.232,24.06 h 8.015 l -0.474,2.275 h -7.966 l -0.985,5.691 h 13.729 l 5.318,-30.185 0.588,-0.047 0.44,2.771 1.571,-2.324 2.44,1.384 -0.837,-2.678 2.603,-1.044 z m -32.557,7.15 -1.814,10.292 h -2.944 l 3.857,-21.917 h 2.946 l -1.547,8.786 h 7.266 L 72.989,9.401 H 55.513 l -6.409,36.41 H 66.58 L 69.576,28.272 H 62.403 z M 40.684,42.697 h -2.191 l 1.473,-8.758 h 2.26 l -1.542,8.758 z m -3.758,-21.692 -0.949,5.389 h 7.576 l -0.379,2.156 h -7.577 l -3.44,19.536 H 45.122 L 49.886,21.005 H 36.926 z M 34.485,14.732 H 27.133 L 22.826,38.648 H 19.912 L 24.214,14.732 H 16.69 l -5.512,31.326 h 10.437 l -0.616,2.965 H 10.625 l -1.284,7.411 h 17.877"
   id="XMLID_8_" />
			</defs>
			<linearGradient
   y2="32.917999"
   x2="65.987198"
   y1="32.917999"
   x1="23.477501"
   gradientUnits="userSpaceOnUse"
   id="XMLID_3_">
				<stop
   id="stop23"
   style="stop-color:#FFFFFF"
   offset="0" />
				<stop
   id="stop25"
   style="stop-color:#D8EAEB"
   offset="0.2753" />
				<stop
   id="stop27"
   style="stop-color:#E0EEEF"
   offset="0.3289" />
				<stop
   id="stop29"
   style="stop-color:#F1F8F8"
   offset="0.4919" />
				<stop
   id="stop31"
   style="stop-color:#FCFDFD"
   offset="0.6664" />
				<stop
   id="stop33"
   style="stop-color:#FFFFFF"
   offset="0.8708" />
				<stop
   id="stop35"
   style="stop-color:#EAF1F3"
   offset="1" />
				<a:midPointStop
   style="stop-color:#FFFFFF"
   offset="0" />
				<a:midPointStop
   style="stop-color:#FFFFFF"
   offset="0.5" />
				<a:midPointStop
   style="stop-color:#D8EAEB"
   offset="0.2753" />
				<a:midPointStop
   style="stop-color:#D8EAEB"
   offset="0.2615" />
				<a:midPointStop
   style="stop-color:#FFFFFF"
   offset="0.8708" />
				<a:midPointStop
   style="stop-color:#FFFFFF"
   offset="0.5" />
				<a:midPointStop
   style="stop-color:#EAF1F3"
   offset="1" />
			</linearGradient>
			<use
   height="67"
   width="104"
   y="0"
   x="0"
   style="fill:#ffffff;fill-opacity:1;opacity:0.9"
   id="use37"
   xlink:href="#XMLID_8_"
   inkscape:export-xdpi="61.233601"
   inkscape:export-ydpi="61.233601" />
			<clipPath
   id="XMLID_4_">
				<use
   height="67"
   width="104"
   y="0"
   x="0"
   id="use40"
   xlink:href="#XMLID_8_" />
			</clipPath>
		</g><g
   id="g42">
			<defs
   id="defs44">
				<path
   inkscape:connector-curvature="0"
   d="m 94.96,21.122 -2.616,-1.015 0.807,-2.688 -2.424,1.412 -1.6,-2.305 -0.407,2.776 -2.8,-0.188 1.917,2.048 -0.052,0.057 H 82.771 L 79.462,39.585 H 77.224 L 80.529,21.219 H 74.75 l -4.232,24.06 h 8.015 l -0.474,2.275 h -7.966 l -0.985,5.691 h 13.729 l 5.318,-30.185 0.588,-0.047 0.44,2.771 1.571,-2.324 2.44,1.384 -0.837,-2.678 2.603,-1.044 z m -32.557,7.15 -1.814,10.292 h -2.944 l 3.857,-21.917 h 2.946 l -1.547,8.786 h 7.266 L 72.989,9.401 H 55.513 l -6.409,36.41 H 66.58 L 69.576,28.272 H 62.403 z M 40.684,42.697 h -2.191 l 1.473,-8.758 h 2.26 l -1.542,8.758 z m -3.758,-21.692 -0.949,5.389 h 7.576 l -0.379,2.156 h -7.577 l -3.44,19.536 H 45.122 L 49.886,21.005 H 36.926 z M 34.485,14.732 H 27.133 L 22.826,38.648 H 19.912 L 24.214,14.732 H 16.69 l -5.512,31.326 h 10.437 l -0.616,2.965 H 10.625 l -1.284,7.411 h 17.877 l 7.267,-41.702 z"
   id="XMLID_7_" />
			</defs>
			<clipPath
   id="XMLID_6_">
				<use
   height="67"
   width="104"
   y="0"
   x="0"
   id="use48"
   xlink:href="#XMLID_7_" />
			</clipPath>
		</g>
</svg>
